<?xml version="1.0" standalone="no"?>
<!DOCTYPE svg PUBLIC "-//W3C//DTD SVG 20010904//EN"
 "http://www.w3.org/TR/2001/REC-SVG-20010904/DTD/svg10.dtd">
<svg version="1.0" xmlns="http://www.w3.org/2000/svg"
 width="48.000000pt" height="48.000000pt" viewBox="0 0 48.000000 48.000000"
 preserveAspectRatio="xMidYMid meet">

<g transform="translate(0.000000,48.000000) scale(0.100000,-0.100000)"
fill="#000000" stroke="none">
<path d="M115 376 c0 -25 2 -26 65 -26 124 0 180 -34 180 -109 0 -67 -55 -111
-139 -111 l-40 0 -3 63 c-3 59 -4 62 -30 65 l-27 3 -3 -91 -3 -92 102 4 c110
3 133 13 177 72 29 39 29 133 0 172 -44 59 -67 69 -177 72 l-102 4 0 -26z"/>
</g>
</svg>
